<svg width="26" height="26" viewBox="0 0 26 26" fill="none" xmlns="http://www.w3.org/2000/svg">
<path d="M12.9997 25.8275C20.0991 25.8275 26 19.9783 26 12.9137C26 5.86158 20.0861 0 12.9867 0C5.8753 0 0 5.86158 0 12.9137C0 19.9783 5.88781 25.8275 12.9997 25.8275ZM13.0003 23.6753C6.98358 23.6753 2.17795 18.8893 2.17795 12.9137C2.17795 6.95006 6.97053 2.15211 12.9867 2.15211C18.9898 2.15211 23.8199 6.9506 23.8329 12.9137C23.8454 18.8898 19.0023 23.6753 12.9992 23.6753M9.94027 15.902C12.9095 18.8644 16.6954 20.7378 18.9387 18.522C19.0181 18.4442 19.0905 18.3596 19.1551 18.2691C19.7413 17.6236 19.9072 16.7626 19.1551 16.2056C18.5689 15.7875 17.9446 15.3575 16.8863 14.6229C16.1473 14.1043 15.6628 14.2302 15.0896 14.8001L14.5795 15.2938C14.4267 15.4332 14.1847 15.4207 14.0188 15.3192C13.5729 15.0534 12.8208 14.4581 12.1068 13.7494C11.4058 13.0526 10.769 12.2682 10.5265 11.8501C10.4373 11.7107 10.3737 11.4828 10.552 11.3186L11.0491 10.7865C11.6228 10.1917 11.7501 9.7358 11.215 8.98872L9.64715 6.78584C9.1115 6.03876 8.3344 6.17813 7.48008 6.81123C7.41645 6.862 7.36588 6.91278 7.31476 6.96302C5.07155 9.19129 6.97053 12.9515 9.94027 15.9015" fill="white"/>
</svg>
